<?xml version="1.0" encoding="UTF-8"?>
<svg xmlns="http://www.w3.org/2000/svg" xmlns:xlink="http://www.w3.org/1999/xlink" width="38px" height="38px" viewBox="0 0 38 38" version="1.1">
<g id="surface1">
<path style=" stroke:none;fill-rule:evenodd;fill:rgb(20.392157%,36.862746%,56.470591%);fill-opacity:1;" d="M 37.039062 24.546875 C 37.039062 24.546875 37.039062 13.496094 37.039062 13.496094 C 37.039062 3.398438 34.65625 0.996094 24.554688 0.996094 C -0.140625 0.839844 0.832031 -0.164062 1 24.53125 C 1 34.625 3.382812 37.027344 13.480469 37.027344 L 21.863281 37.027344 C 32.59375 37.214844 37.308594 36.476562 37.039062 24.546875 Z M 30.09375 26.707031 L 27.464844 26.707031 C 26.472656 26.707031 26.171875 25.898438 24.386719 24.117188 C 22.828125 22.617188 22.171875 22.429688 21.777344 22.429688 C 21.234375 22.429688 21.082031 22.578125 21.082031 23.328125 L 21.082031 25.691406 C 21.082031 26.332031 20.878906 26.707031 19.207031 26.707031 C 16.429688 26.707031 13.371094 25.019531 11.191406 21.902344 C 7.925781 17.34375 7.042969 13.890625 7.042969 13.195312 C 7.042969 12.800781 7.191406 12.445312 7.945312 12.445312 L 10.570312 12.445312 C 11.246094 12.445312 11.492188 12.746094 11.753906 13.4375 C 12.832031 16.972656 16.523438 22.847656 16.578125 19.460938 C 16.578125 19.460938 16.578125 15.597656 16.578125 15.597656 C 16.464844 13.832031 15.527344 13.683594 15.527344 13.046875 C 15.527344 12.761719 15.789062 12.445312 16.203125 12.445312 L 20.332031 12.445312 C 20.894531 12.445312 21.082031 12.726562 21.082031 13.402344 L 21.082031 18.617188 C 21.15625 19.871094 21.933594 19.378906 22.714844 18.5625 C 24.613281 16.460938 25.945312 13.195312 25.945312 13.195312 C 26.113281 12.800781 26.414062 12.445312 27.089844 12.445312 L 29.71875 12.445312 C 30.507812 12.445312 30.675781 12.839844 30.507812 13.402344 C 30.1875 14.941406 26.976562 19.445312 26.976562 19.464844 C 26.695312 19.894531 26.582031 20.121094 26.976562 20.625 C 27.734375 21.570312 33.246094 26.546875 30.09375 26.707031 Z M 30.09375 26.707031 "/>
</g>
</svg>
